<svg width="778" height="137" viewBox="0 0 778 137" fill="white"  xmlns="http://www.w3.org/2000/svg">
<path d="M82 55H136.7V136.6L109.4 109.4V82.1L82 55Z" />
<path d="M29.2 54.9004C29.2 70.0004 41.4 82.2004 56.5 82.2004H82.3L109.4 109.4H55C24.9 109.4 0.5 85.0004 0.5 54.9004C0.5 24.8004 24.9 0.400391 55 0.400391H136.7V27.6004H56.5C41.4 27.6004 29.2 39.8004 29.2 54.9004Z" />
<path d="M370.7 0L353 67.9H369.5L374.3 48.2H408L412.8 67.9H429.3L411.6 0H370.7ZM404.4 33.5H377.7L382.2 14.7H399.9L404.4 33.5Z" />
<path d="M500.5 53.3H495L476.2 0H444.5V67.9H459.8V14.7H465.3L483.8 67.9H515.8V0H500.5V53.3Z" />
<path d="M623.203 67.9H683.703V53.3H638.503V39.8H683.703V25.2H638.503V14.6H683.703V0H623.203V67.9Z" />
<path d="M776.502 0H759.302L748.202 25.2L729.102 25.3L718.002 0H700.802L714.202 34L700.102 67.9H717.602L729.802 40H747.502L760.002 67.9H777.202L763.102 34L776.502 0Z" />
<path d="M247.602 14.7V0H209.502C190.802 0 175.602 15.2 175.602 33.9C175.602 52.6 190.802 67.9 209.502 67.9H247.602V33.6H232.302V53.3H211.002C200.402 53.3 191.702 44.7 191.702 34C191.702 23.4 200.302 14.7 211.002 14.7H247.602Z" />
<path d="M574.797 0H536.297V67.9H574.797C593.497 67.9 608.697 52.6 608.697 33.9C608.697 15.2 593.497 0 574.797 0ZM573.297 53.2H551.597V14.7H573.297C583.897 14.7 592.597 23.3 592.597 34C592.597 44.6 583.997 53.2 573.297 53.2Z" />
<path d="M339.398 24.1C339.398 10.8 328.598 0 315.298 0H268.898V67.9H284.198V48.3H315.898L322.098 67.9H338.598L329.998 43.2C335.698 38.8 339.398 31.9 339.398 24.1ZM284.198 14.7H314.498C319.698 14.7 323.898 18.9 323.898 24.1C323.898 29.2 319.798 33.4 314.698 33.5H284.098V14.7H284.198Z" />
<path d="M177.5 88.9004H193.9V92.6004H182.2V96.8004H187.8C190.3 96.8004 192.1 97.3004 193.4 98.3004C194.7 99.3004 195.3 100.8 195.3 102.7C195.3 104.7 194.6 106.3 193.2 107.4C191.8 108.5 189.8 109.1 187.1 109.1H177.5V88.9004ZM186.9 105.7C188.1 105.7 189 105.5 189.7 105C190.3 104.5 190.7 103.8 190.7 102.9C190.7 101.1 189.5 100.2 187 100.2H182.3V105.6H186.9V105.7Z" />
<path d="M221.703 88.9004L213.103 105C212.303 106.5 211.303 107.7 210.103 108.5C208.903 109.3 207.703 109.7 206.303 109.7C205.203 109.7 204.103 109.5 203.003 109L204.103 105.4C204.903 105.7 205.603 105.8 206.103 105.8C206.703 105.8 207.203 105.7 207.703 105.4C208.203 105.1 208.603 104.7 209.003 104.1L209.203 103.9L201.203 89.0004H206.203L211.603 99.9004L217.203 89.0004H221.703V88.9004Z" />
<path d="M249.798 105.4V113.4H245.498V109.2H231.198V113.4H226.898V105.4H227.698C228.898 105.4 229.798 104.5 230.298 102.7C230.798 101 231.098 98.5 231.198 95.3L231.398 89H246.998V105.5H249.798V105.4ZM234.698 101.8C234.398 103.4 233.898 104.6 233.298 105.4H242.398V92.8H235.398L235.298 95.8C235.198 98.1 234.998 100.1 234.698 101.8Z" />
<path d="M273.903 105.4V109.2H258.203V88.9004H273.603V92.7004H262.903V97.1004H272.303V100.7H262.903V105.4H273.903Z" />
<path d="M298.498 92.7004H291.998V109.2H287.398V92.7004H280.898V88.9004H298.498V92.7004Z" />
<path d="M334.402 92.7004H324.802V109.2H320.102V88.9004H334.502L334.402 92.7004Z" />
<path d="M356 89.8004C357.3 90.4004 358.3 91.2004 359.1 92.4004C359.8 93.5004 360.2 94.8004 360.2 96.3004C360.2 97.8004 359.8 99.1004 359.1 100.2C358.4 101.3 357.4 102.2 356 102.7C354.7 103.3 353.1 103.6 351.3 103.6H347.2V109.2H342.5V88.9004H351.3C353.1 88.9004 354.7 89.2004 356 89.8004ZM354.3 98.9004C355 98.3004 355.4 97.4004 355.4 96.3004C355.4 95.2004 355 94.3004 354.3 93.7004C353.6 93.1004 352.5 92.8004 351.1 92.8004H347.3V99.8004H351.1C352.5 99.8004 353.6 99.5004 354.3 98.9004Z" />
<path d="M381.203 104.9H371.803L370.003 109.2H365.203L374.203 88.9004H378.803L387.903 109.2H383.003L381.203 104.9ZM379.803 101.3L376.603 93.5004L373.403 101.3H379.803Z" />
<path d="M414.498 88.9004V109.2H409.798V100.9H400.598V109.2H395.898V88.9004H400.598V96.9004H409.798V88.9004H414.498Z" />
<path d="M445.603 105.4V113.4H441.303V109.2H427.003V113.4H422.703V105.4H423.503C424.703 105.4 425.603 104.5 426.103 102.7C426.603 101 426.903 98.5 427.003 95.3L427.203 89H442.803V105.5H445.603V105.4ZM430.503 101.8C430.203 103.4 429.703 104.6 429.103 105.4H438.203V92.8H431.203L431.103 95.8C431.003 98.1 430.803 100.1 430.503 101.8Z" />
<path d="M454 88.9004H458.7V102.1L468.3 88.9004H472.8V109.2H468.1V96.0004L458.4 109.2H454V88.9004Z" />
<path d="M487.002 108.2C485.302 107.3 484.002 106 483.002 104.4C482.002 102.8 481.602 101 481.602 99.0004C481.602 97.0004 482.102 95.2004 483.002 93.6004C484.002 92.0004 485.302 90.8004 487.002 89.8004C488.702 88.9004 490.602 88.4004 492.702 88.4004C494.802 88.4004 496.702 88.9004 498.402 89.8004C500.102 90.7004 501.402 92.0004 502.402 93.6004C503.402 95.2004 503.802 97.0004 503.802 99.0004C503.802 101 503.302 102.8 502.402 104.4C501.402 106 500.102 107.2 498.402 108.2C496.702 109.1 494.802 109.6 492.702 109.6C490.602 109.6 488.702 109.1 487.002 108.2ZM496.002 104.7C497.002 104.1 497.702 103.4 498.302 102.4C498.902 101.4 499.102 100.3 499.102 99.0004C499.102 97.7004 498.802 96.6004 498.302 95.6004C497.802 94.6004 497.002 93.8004 496.002 93.3004C495.002 92.7004 494.002 92.5004 492.802 92.5004C491.602 92.5004 490.502 92.8004 489.602 93.3004C488.602 93.9004 487.902 94.6004 487.302 95.6004C486.702 96.6004 486.502 97.7004 486.502 99.0004C486.502 100.3 486.802 101.4 487.302 102.4C487.902 103.4 488.602 104.2 489.602 104.7C490.602 105.3 491.602 105.5 492.802 105.5C493.902 105.6 495.002 105.3 496.002 104.7Z" />
<path d="M526.397 100.5C527.097 101.4 527.397 102.4 527.397 103.5C527.397 104.7 526.997 105.8 526.197 106.7C525.397 107.6 524.297 108.3 522.897 108.8C521.497 109.3 519.997 109.5 518.397 109.5C516.997 109.5 515.597 109.3 514.197 109C512.797 108.7 511.497 108.1 510.297 107.4L511.697 104C512.597 104.5 513.597 105 514.597 105.2C515.697 105.5 516.697 105.6 517.697 105.6C519.097 105.6 520.197 105.3 521.197 104.8C522.097 104.3 522.597 103.6 522.597 102.7C522.597 101.9 522.297 101.4 521.697 101C521.097 100.6 520.197 100.4 519.097 100.4H514.097V96.9002H518.697C519.597 96.9002 520.397 96.7002 520.897 96.3002C521.397 95.9002 521.697 95.4002 521.697 94.7002C521.697 93.9002 521.297 93.3002 520.597 92.8002C519.797 92.4002 518.897 92.1002 517.697 92.1002C516.797 92.1002 515.897 92.2002 514.897 92.5002C513.997 92.7002 513.097 93.1002 512.197 93.6002L510.797 89.9002C512.897 88.8002 515.297 88.2002 517.797 88.2002C519.397 88.2002 520.797 88.4002 522.197 88.9002C523.597 89.4002 524.597 90.0002 525.397 90.9002C526.197 91.8002 526.597 92.8002 526.597 94.0002C526.597 95.0002 526.297 95.8002 525.797 96.6002C525.297 97.4002 524.597 97.9002 523.697 98.3002C524.797 99.0002 525.697 99.7002 526.397 100.5Z" />
<path d="M554.998 88.9004V109.2H550.298V100.9H541.098V109.2H536.398V88.9004H541.098V96.9004H550.298V88.9004H554.998Z" />
<path d="M569.298 108.2C567.598 107.3 566.298 106 565.298 104.4C564.298 102.8 563.898 101 563.898 99.0004C563.898 97.0004 564.398 95.2004 565.298 93.6004C566.298 92.0004 567.598 90.8004 569.298 89.8004C570.998 88.9004 572.898 88.4004 574.998 88.4004C577.098 88.4004 578.998 88.9004 580.698 89.8004C582.398 90.7004 583.698 92.0004 584.698 93.6004C585.698 95.2004 586.098 97.0004 586.098 99.0004C586.098 101 585.598 102.8 584.698 104.4C583.698 106 582.398 107.2 580.698 108.2C578.998 109.1 577.098 109.6 574.998 109.6C572.898 109.6 570.998 109.1 569.298 108.2ZM578.198 104.7C579.198 104.1 579.898 103.4 580.498 102.4C581.098 101.4 581.298 100.3 581.298 99.0004C581.298 97.7004 580.998 96.6004 580.498 95.6004C579.998 94.6004 579.198 93.8004 578.198 93.3004C577.198 92.7004 576.198 92.5004 574.998 92.5004C573.798 92.5004 572.698 92.8004 571.798 93.3004C570.798 93.9004 570.098 94.6004 569.498 95.6004C568.998 96.6004 568.698 97.7004 568.698 99.0004C568.698 100.3 568.998 101.4 569.498 102.4C570.098 103.4 570.798 104.2 571.798 104.7C572.798 105.3 573.798 105.5 574.998 105.5C576.198 105.5 577.298 105.3 578.198 104.7Z" />
</svg>