<svg version="1.1" fill="white" xmlns="http://www.w3.org/2000/svg" xmlns:xlink="http://www.w3.org/1999/xlink" x="0px" y="0px" viewBox="0 0 280.9 50.59"  xml:space="preserve">
<g>
	<path d="M73.97,20.25c-2.82,0-5.11,2.25-5.11,5.01c0,2.8,2.29,5.08,5.11,5.08c2.74,0,4.97-2.28,4.97-5.08   C78.95,22.5,76.72,20.25,73.97,20.25z"/>
	<path d="M39.1,0.9h-7.43c-0.63,0-1.13,0.51-1.13,1.13v18.79H9.7V2.03C9.7,1.4,9.19,0.9,8.56,0.9H1.13C0.51,0.9,0,1.4,0,2.03v46.53   c0,0.63,0.51,1.13,1.13,1.13h7.43c0.63,0,1.13-0.51,1.13-1.13V29.77h20.84v18.79c0,0.63,0.51,1.13,1.13,1.13h7.43   c0.63,0,1.13-0.51,1.13-1.13V2.03C40.23,1.4,39.73,0.9,39.1,0.9z"/>
	<path d="M59.46,0.9h-7.43c-0.63,0-1.13,0.51-1.13,1.13v46.53c0,0.63,0.51,1.13,1.13,1.13h7.43c0.63,0,1.13-0.51,1.13-1.13V2.03   C60.6,1.4,60.09,0.9,59.46,0.9z"/>
	<path d="M96.97,1.44c-0.24-0.34-0.63-0.55-1.05-0.55l-7.58,0c-0.63,0-1.13,0.51-1.13,1.13v46.53c0,0.63,0.51,1.13,1.13,1.13h7.43   c0.63,0,1.13-0.51,1.13-1.13V17.84l7.57,10.9l5.81-8.29L96.97,1.44z"/>
	<path d="M279.24,29.05L279.24,29.05c-1.16-1.7-2.58-3.04-4.34-4.1c-1.79-1.07-3.79-1.88-5.94-2.4c-2.29-0.55-4.42-1-6.51-1.38   c-1.55-0.28-3.09-0.6-4.7-0.97c-1.52-0.35-2.74-0.72-3.73-1.15c-1.08-0.45-1.94-1.07-2.56-1.8c-0.66-0.85-1-1.84-1-2.94   c0-1.87,0.91-3.38,2.71-4.47c1.61-0.99,3.87-1.49,6.89-1.54c2.25,0.05,4.45,0.34,6.54,0.88c1.76,0.45,4.51,1.47,6.68,2.47   l0.24,0.11c0.15,0.07,0.31,0.11,0.48,0.11c0.4,0,0.73-0.22,0.93-0.52l3.62-5.69c0.11-0.17,0.19-0.37,0.19-0.59   c0-0.44-0.26-0.8-0.62-0.99l-0.35-0.19c-2.73-1.29-5.42-2.26-8-2.87C266.94,0.35,264.04,0,261.13,0c-3.41,0-6.2,0.27-8.77,0.84   c-2.51,0.56-4.78,1.43-6.75,2.6c-1.96,1.16-3.53,2.64-4.67,4.41c-1.15,1.75-1.73,3.92-1.73,6.46c0,2.69,0.67,4.96,2,6.75   c1.37,1.82,3.09,3.32,5.1,4.44c2.05,1.14,4.26,2.02,6.59,2.62c2.3,0.58,4.46,1.04,6.41,1.38c1.2,0.19,2.36,0.42,3.48,0.68   c1.13,0.25,2.17,0.59,3.19,1.03c1.05,0.48,1.86,1.07,2.47,1.78c0.67,0.79,1.01,1.76,1.01,2.88c0,2.15-1.07,3.77-3.2,4.83   c-1.81,0.92-4.04,1.41-6.59,1.46c-2.61-0.05-5.22-0.48-7.78-1.27c-1.79-0.55-5-1.95-7.82-3.7l-0.32-0.17   c-0.16-0.09-0.34-0.16-0.55-0.16c-0.4,0-0.74,0.22-0.94,0.54l-3.64,5.8c-0.1,0.17-0.18,0.36-0.18,0.57c0,0.38,0.19,0.72,0.48,0.92   c0,0,0.29,0.2,0.29,0.2c2.99,1.95,6.15,3.38,9.4,4.26c3.55,0.95,7.28,1.43,10.99,1.43c1.48,0,2.95-0.08,4.41-0.23   c1.5-0.16,2.9-0.4,4.28-0.73c2.53-0.61,4.77-1.57,6.63-2.86c1.87-1.29,3.31-2.84,4.4-4.74c1.05-1.85,1.59-4.09,1.59-6.63   C280.9,32.82,280.34,30.69,279.24,29.05z"/>
	<path d="M135.71,0.9h-7.14c-0.48,0-0.9,0.24-1.16,0.6l0,0L106.4,31.47l4.73,6.71c0.2,0.27,0.51,0.46,0.88,0.46   c0.38,0,0.69-0.2,0.89-0.48l14.23-20.36l0.03,30.47c0,0.78,0.63,1.42,1.42,1.42h7.14c0.63,0,1.13-0.51,1.13-1.13V2.03   C136.85,1.4,136.34,0.9,135.71,0.9z"/>
	<path d="M200.23,23.61L200.23,23.61c0.37-4.15,2.16-7.89,5.03-10.52c2.97-2.72,6.88-4.16,11.31-4.16c1.69,0,3.43,0.22,5.14,0.64   c1.65,0.5,3.75,1.31,5.48,2.1l0.13,0.06l0.37,0.16c0.14,0.06,0.3,0.1,0.46,0.1c0.4,0,0.73-0.22,0.93-0.53l3.69-5.79   c0.11-0.17,0.18-0.36,0.18-0.58c0-0.43-0.25-0.79-0.6-0.98l-0.51-0.27c-1.34-0.63-2.69-1.2-3.99-1.66   c-3.5-1.42-7.41-2.17-11.3-2.17c-0.13,0-0.26,0-0.4,0.01l-0.21,0c-9.36,0.18-17.31,4.52-21.82,11.9c-2.4,3.93-3.69,8.55-3.71,13.37   c0,0,0,0,0,0c0,0,0,0,0,0c0.02,4.82,1.31,9.45,3.71,13.37c4.51,7.38,12.47,11.72,21.82,11.9l0.21,0.01c0.13,0,0.26,0.01,0.4,0.01   c3.89,0,7.8-0.75,11.3-2.17c1.3-0.46,2.65-1.02,3.99-1.66l0.51-0.27c0.35-0.19,0.6-0.55,0.6-0.98c0-0.22-0.08-0.41-0.18-0.58   l-3.69-5.79c-0.2-0.31-0.54-0.53-0.93-0.53c-0.17,0-0.33,0.04-0.47,0.1l-0.36,0.17l-0.13,0.06c-1.73,0.79-3.83,1.59-5.48,2.09   c-1.71,0.42-3.44,0.63-5.14,0.63c-4.43,0-8.34-1.44-11.31-4.15c-2.88-2.63-4.66-6.36-5.03-10.51v0c-0.05-0.53-0.07-1.06-0.07-1.59   c0-0.03,0-0.06,0-0.09s0-0.06,0-0.09C200.16,24.67,200.18,24.14,200.23,23.61z"/>
	<path d="M171.54,1.6c-0.17-0.41-0.57-0.71-1.05-0.71h-0.02h-0.04h-8.69h-0.04h-0.02c-0.48,0-0.88,0.29-1.05,0.71l0,0l-18.97,46.54   c-0.05,0.13-0.09,0.27-0.09,0.42c0,0.63,0.51,1.13,1.13,1.13h8.37c0.48,0,0.88-0.3,1.05-0.71l4.24-11.04h19.43l4.24,11.04   c0.17,0.42,0.57,0.71,1.05,0.71h8.37c0.63,0,1.13-0.51,1.13-1.13c0-0.15-0.03-0.29-0.08-0.42L171.54,1.6z M159.82,28.99l6.27-16.4   l6.27,16.4H159.82z"/>
</g>
</svg>