<svg version="1.1" id="Layer_1" xmlns="http://www.w3.org/2000/svg" xmlns:xlink="http://www.w3.org/1999/xlink" x="0px" y="0px" width="246.37px" height="58.483px" viewBox="0 0 246.37 58.483" fill="white" xml:space="preserve">
                <g>
                  <path d="M235.728,16.045c0-2.938,2.383-5.321,5.323-5.321c2.938,0,5.319,2.383,5.319,5.321c0,2.935-2.381,5.321-5.319,5.321
                    C238.112,21.366,235.728,18.98,235.728,16.045 M236.33,16.045c0.009,2.608,2.113,4.713,4.722,4.72
                    c2.603-0.006,4.712-2.112,4.72-4.72c-0.008-2.605-2.117-4.713-4.72-4.72C238.442,11.332,236.338,13.439,236.33,16.045"></path>
                  <path d="M242.779,19.44l-1.546-3.014H239.6v3.014h-0.723v-6.791h2.605c1.183,0,2.006,0.716,2.006,1.89
                    c0,0.991-0.598,1.639-1.473,1.821l1.611,3.081H242.779z M241.412,13.297H239.6v2.49h1.812c0.793,0,1.354-0.41,1.354-1.238
                    C242.766,13.714,242.205,13.297,241.412,13.297"></path>
                  <path d="M63.262,10.043H54.38V0L35.808,15.825h9.111v40.643h5.725c2.1-0.027,3.719-1.858,3.736-3.827V15.825h5.358
                    c0.913-0.002,1.772-0.426,2.422-1.05c0.644-0.632,1.101-1.497,1.103-2.457V10.043z"></path>
                  <path d="M27.874,31.574L27.874,31.574c-2.971-1.592-6.554-2.345-10.695-2.345c-3.08-0.022-4.616-1.321-5.52-2.735
                    c-0.893-1.413-1.053-3.02-1.047-3.342c-0.004-0.324,0.166-2.161,1.299-3.815c1.14-1.653,3.178-3.227,7.245-3.241
                    c3.462,0.005,5.783,0.977,7.391,2.241c1.604,1.264,2.496,2.844,2.983,4.095c0.377,1.071,0.958,1.784,1.596,2.204
                    c0.637,0.42,1.305,0.536,1.829,0.536c0.654-0.004,1.104-0.169,1.15-0.185l0.389-0.145l-0.002-0.42
                    c-0.009-1.27-0.242-2.612-0.765-4.085c-0.783-2.194-2.316-4.707-4.968-6.655c-2.632-1.943-6.25-3.15-10.612-3.15h-0.061h-0.022
                    c-3.09,0-5.765,0.483-8.039,1.368c-3.439,1.325-5.849,3.607-7.222,5.905c-1.376,2.31-1.845,4.466-1.862,6.258
                    c0.016,1.601,0.105,5.128,2.488,8.597c1.196,1.733,3.007,3.337,5.353,4.406c2.322,1.066,5.091,1.614,8.326,1.619h0.07
                    c4.023,0.005,6.174,0.989,7.217,1.898c0.543,0.483,0.871,0.954,1.133,1.566c0.251,0.599,0.4,1.331,0.4,2.237
                    c0.005,0.793-0.092,2.985-1.23,4.911c-1.151,1.916-3.237,3.641-7.614,3.659c-6.255-0.01-9.8-3.282-12.077-6.815
                    c-0.504-0.803-0.85-1.492-1.355-2.051c-0.496-0.565-1.244-0.926-2.188-0.91c-0.279,0-0.585,0.024-0.914,0.077l-0.42,0.063
                    l-0.077,0.414C0.014,43.934,0,44.141,0,44.353c0.014,1.545,0.779,3.556,1.596,5.001c1.397,2.422,3.497,4.418,6.052,5.937
                    c2.562,1.515,5.625,2.544,9,2.797c0.72,0.057,1.424,0.084,2.11,0.084h0.07c5.072,0,9.298-1.527,12.216-4.174
                    c2.92-2.636,4.345-6.199,4.346-9.585v-0.005c-0.002-2.006-0.343-4.004-1.131-5.898C33.088,35.651,30.846,33.156,27.874,31.574"></path>
                  <path d="M86.975,10.581c-13.326,0-24.119,10.797-24.123,24.118c0.004,13.326,10.797,23.61,24.123,23.615
                    c6.061-0.002,11.596-1.737,15.835-5.429c0,0,0.785,3.541,5.546,3.541h2.925v-25.06C111.28,17.131,99.286,10.581,86.975,10.581
                    M97.015,47.798c-2.675,3.199-6.332,5.038-10.379,5.04c-4.077-0.011-7.429-1.578-9.829-4.624
                    c-2.393-3.042-3.821-7.613-3.821-13.613c0-5.215,1.419-9.855,3.835-13.146c2.42-3.297,5.786-5.266,9.815-5.268
                    c4.049,0.002,7.704,1.816,10.379,5.027c2.671,3.209,4.35,7.821,4.353,13.387C101.368,40.03,99.692,44.601,97.015,47.798"></path>
                  <path d="M139.592,16.304c2.02-0.188,3.627-1.784,3.835-3.798l0.004-0.033V10.71h-0.598c-0.878,0-2.764,0.012-5.056,0.389
                    c-2.628,0.44-5.941,1.368-9.09,3.481v-3.152h-3.549c-3.486,0-5.911,2.063-5.911,4.651v40.387h5.862
                    c0.915-0.004,1.79-0.405,2.461-1.052c0.665-0.65,1.138-1.56,1.138-2.585V30.606c0.005-4.124,0.995-6.838,2.052-8.748
                    c0.795-1.423,1.727-2.404,2.783-3.194c1.566-1.172,3.47-1.854,5.222-2.2c0.287-0.057,0.574-0.104,0.854-0.146L139.592,16.304z"></path>
                  <path d="M162.652,10.658c-13.209,0-23.912,10.708-23.912,23.915c0,13.205,10.703,23.911,23.912,23.911
                    c13.203,0,23.912-10.705,23.912-23.911C186.564,21.366,175.855,10.658,162.652,10.658 M162.652,53.026
                    c-7.754,0-14.037-8.261-14.037-18.453s6.283-18.455,14.037-18.455c7.75,0,14.033,8.264,14.033,18.455
                    S170.402,53.026,162.652,53.026"></path>
                  <path d="M214.442,10.724c-6.152,0-9.653,1.743-12.799,3.855v-3.15h-3.556c-3.486,0-5.904,2.061-5.904,4.648v40.389h5.855
                    c0.92-0.006,1.794-0.408,2.463-1.054c0.664-0.652,1.137-1.557,1.141-2.585V30.603c0-8.864,3.67-14.538,12.506-14.538
                    c12.042,0,11.207,13.05,11.207,13.05v27.352h5.262c0.913-0.006,1.787-0.408,2.456-1.054c0.624-0.612,1.065-1.448,1.122-2.391
                    V29.376C234.195,15.026,223.017,10.724,214.442,10.724"></path>
                </g>
                </svg>