<svg
    id="Layer_1"
    enable-background="new 0 0 512 512"
    viewBox="0 0 512 512"
    xmlns="http://www.w3.org/2000/svg"
    height="50px"
    width="50px"
	
  >
    <g>
      <path fill="#33333391" 
        d="m391.1 22.69h-270.2c-54.15 0-98.22 44.06-98.22 98.22v270.19c0 54.16 44.06 98.22 98.22 98.22h270.2c54.15 0 98.22-44.06 98.22-98.22v-270.2c-.01-54.16-44.07-98.21-98.22-98.21zm-270.2 33.33h270.2c35.78 0 64.89 29.12 64.89 64.89v150.63l-95.77-109.81c-3.17-3.63-7.74-5.71-12.56-5.71-.02 0-.02 0-.04 0-4.83.02-9.41 2.12-12.57 5.78l-107.47 124.45-50.7-57.91c-3.17-3.61-7.74-5.68-12.54-5.68-.01 0-.01 0-.02 0-4.81 0-9.38 2.08-12.54 5.71l-95.76 109.82v-217.29c0-35.77 29.1-64.88 64.88-64.88zm270.2 399.96h-270.2c-35.78 0-64.89-29.12-64.89-64.89v-2.21l108.35-124.23 50.76 57.99c3.17 3.63 7.48 5.88 12.6 5.68 4.83-.02 9.41-2.12 12.56-5.78l107.44-124.45 108.26 124.13v68.87c0 35.78-29.1 64.89-64.88 64.89z"
      />
      <path fill="#33333391"
        d="m231 206c32.16 0 58.33-26.17 58.33-58.33s-26.17-58.32-58.33-58.32-58.33 26.17-58.33 58.33 26.17 58.32 58.33 58.32zm0-83.32c13.78 0 25 11.21 25 25 0 13.78-11.21 25-25 25-13.78 0-25-11.21-25-25s11.22-25 25-25z"
      />
    </g>
  </svg>